<svg xmlns="http://www.w3.org/2000/svg" width="32" height="32" viewBox="0 0 32 32"><path fill="#fff" d="M5.982 24.214q-.036 0-.107-.036-1.536-1.018-3.009-2.589T.375 18.375Q0 17.839 0 17.143q0-.161.036-.339t.071-.321.125-.321.152-.286.188-.304.179-.268.214-.277.196-.259q3.286-4.482 8.071-6.518-1.964-3.536-1.964-3.768 0-.339.304-.518 2.071-1.143 2.286-1.143.321 0 .5.286l2.214 4.089q1.643-.339 3.429-.339 4.75 0 8.884 2.455t6.759 6.598q.357.554.357 1.232t-.357 1.232q-1.625 2.536-3.902 4.527t-4.973 3.134q1.964 3.536 1.964 3.768 0 .357-.304.518-2.071 1.143-2.268 1.143-.339 0-.518-.286l-2.214-4.089-1.143-2.125-7.929-14.643.125-.125q-1.036.429-1.768.839.054.089 2.268 4.179t4.339 8.018 2.125 3.982q0 .125-.161.161-.232.054-1.286.054-1.018 0-1.071-.125L6.785 12.286q-.696.5-1.464 1.214.429.768 3.821 7.027t3.393 6.33q0 .179-.196.179-.25 0-1.473-.393t-1.295-.5l-1.893-3.518-4-7.375q-.786.946-1.393 1.893.036.054.321.446t.411.607l3.143 5.839q0 .179-.179.179zm14.822-1.821l.875 1.625q4.875-1.982 8.036-6.875-3.214-4.946-8.196-6.946 1.196 1.143 1.839 2.652t.643 3.152q0 1.893-.839 3.58t-2.357 2.813zm-5.661-10.964q0 .357.25.607t.607.25q1.536 0 2.625 1.089T19.714 16q0 .357.25.607t.607.25.607-.25.25-.607q0-2.25-1.589-3.839T16 10.572q-.357 0-.607.25t-.25.607zm6.536-1.161l-.161-.071.125.125z"/></svg>